# xmcd CD database file
#
# Track frame offsets:
#	180
#	14080
#	26424
#	37865
#	49188
#	58668
#	70091
#	83197
#	93699
#	104777
#
# Disc length: 1554 seconds
#
# Revision: 0
# Processed by: cddbd v1.5.1PL0 Copyright (c) Steve Scherf et al.
# Submitted via: CDex 1.51
#
DISCID=8506100a
DTITLE=Patsy Cline - Walkin' After Midnight
DYEAR=1998
DGENRE=Country
TTITLE0=A Church, A Courtroom And Then Goodbye
TTITLE1=A Rich Man's Roses Or A Poor Man's Gold
TTITLE2=Crazy Dreams
TTITLE3=Hidin' Out
TTITLE4=I'm Moving Along
TTITLE5=Just Out Of Reach
TTITLE6=Life's Railway To Heaven
TTITLE7=Lovesick Blues
TTITLE8=Stop The World And Let Me Off
TTITLE9=Walkin' After Midnight
EXTD=YEAR: 1998
EXTT0=
EXTT1=
EXTT2=
EXTT3=
EXTT4=
EXTT5=
EXTT6=
EXTT7=
EXTT8=
EXTT9=
PLAYORDER=
